<?xml version="1.0" encoding="utf-8"?>
<!-- Generator: Adobe Illustrator 26.2.1, SVG Export Plug-In . SVG Version: 6.00 Build 0)  -->
<svg version="1.1" id="Layer_1" xmlns="http://www.w3.org/2000/svg" xmlns:xlink="http://www.w3.org/1999/xlink" x="0px" y="0px"
	 viewBox="0 0 1100 1100" style="enable-background:new 0 0 1100 1100;" xml:space="preserve">
<style type="text/css">
	.st0{fill:#FFFFFF;}
	.st1{enable-background:new    ;}
</style>
<g id="a">
</g>
<g id="b">
</g>
<g id="c">
</g>
<g id="d">
	<g>
		<path class="st0" d="M752.5,660.9c-5.8,0-11.7-2-16.5-6c-10.9-9.1-12.3-25.3-3.2-36.2c43.6-52,67.7-118,67.7-185.8
			c0-159.3-129.6-289-289-289c-83.8,0-163.4,36.3-218.3,99.6c-9.3,10.7-25.5,11.9-36.2,2.6c-10.7-9.3-11.9-25.5-2.6-36.2
			c64.7-74.5,158.4-117.3,257-117.3c187.6,0,340.3,152.7,340.3,340.3c0,79.9-28.3,157.6-79.7,218.8
			C767,657.8,759.8,660.9,752.5,660.9L752.5,660.9z"/>
		<path class="st0" d="M442.4,590.6c-4,0-8.1-0.9-11.9-2.9c-57.8-30.2-93.7-89.5-93.7-154.8c0-96.3,78.4-174.7,174.7-174.7
			c29.4,0,58.6,7.5,84.4,21.7c12.4,6.9,16.9,22.5,10.1,34.9c-6.9,12.4-22.5,16.9-34.9,10.1c-18.2-10-38.8-15.4-59.6-15.4
			c-68,0-123.3,55.3-123.3,123.3c0,46,25.4,87.9,66.2,109.3c12.6,6.6,17.4,22.1,10.9,34.7C460.6,585.6,451.7,590.6,442.4,590.6
			L442.4,590.6z"/>
		<path class="st0" d="M281.5,500.6c-12.2,0-23-8.7-25.2-21.1c-2.8-15.4-4.2-31-4.2-46.6c0-143.1,116.4-259.5,259.5-259.5
			c125.4,0,232.8,89.5,255.3,212.9c2.5,14-6.7,27.3-20.7,29.9c-14,2.6-27.3-6.7-29.9-20.6c-18.1-99-104.2-170.8-204.8-170.8
			c-114.8,0-208.2,93.4-208.2,208.2c0,12.5,1.1,25.1,3.4,37.4c2.5,14-6.7,27.3-20.6,29.9C284.5,500.5,283,500.6,281.5,500.6
			L281.5,500.6z"/>
		<circle class="st0" cx="509.6" cy="424.4" r="61"/>
	</g>
	<g>
		<path class="st0" d="M150.3,879.1c-2.9,2.4-6.4,4.1-10.5,5.3s-8.5,1.8-13.1,1.8c-11.6,0-20.5-3-26.8-9.1s-9.5-14.8-9.5-26.4v-94.4
			H115v24h28.2v19.7H115v50c0,5.1,1.3,9,3.8,11.7c2.6,2.7,6.1,4,10.7,4c5.5,0,10.1-1.4,13.8-4.3L150.3,879.1L150.3,879.1z"/>
		<path class="st0" d="M241.7,853.8l13,15.2c-4.6,5.7-10.5,9.9-17.7,12.8c-7.2,2.9-15.4,4.3-24.4,4.3c-11.6,0-21.7-2.3-30.5-6.9
			c-8.8-4.6-15.6-11-20.4-19.2c-4.8-8.2-7.2-17.5-7.2-27.9s2.3-19.5,7-27.7c4.7-8.2,11.1-14.6,19.3-19.2c8.2-4.6,17.5-6.9,27.9-6.9
			s18.8,2.1,26.9,6.4c8.1,4.3,14.5,10.4,19.2,18.3s7.1,17.2,7.1,27.9l-80.6,15.8c2.5,6,6.5,10.6,12,13.8c5.5,3.2,12.1,4.7,19.9,4.7
			C224.6,865.3,234.1,861.5,241.7,853.8L241.7,853.8z M186.7,806.9c-5.6,5.9-8.4,13.9-8.4,23.8v0.2l59.5-11.4
			c-1.7-6.4-5.2-11.6-10.3-15.6c-5.2-3.9-11.5-5.9-18.8-5.9C199.6,798.1,192.3,801,186.7,806.9L186.7,806.9z"/>
		<path class="st0" d="M342.4,778.4v23.5c-2.1-0.4-4-0.6-5.7-0.6c-9.6,0-17.1,2.8-22.5,8.4c-5.4,5.6-8.1,13.6-8.1,24.1v51h-24.6
			V779.6H305v15.4C312.1,783.9,324.6,778.4,342.4,778.4L342.4,778.4z"/>
		<path class="st0" d="M420.3,778.4v23.5c-2.1-0.4-4-0.6-5.7-0.6c-9.6,0-17.1,2.8-22.5,8.4c-5.4,5.6-8.1,13.6-8.1,24.1v51h-24.6
			V779.6h23.5v15.4C389.9,783.9,402.4,778.4,420.3,778.4L420.3,778.4z"/>
		<path class="st0" d="M539.1,779.6v105.2h-23.5v-13.6c-4.1,5-9.1,8.7-15.1,11.2c-6,2.5-12.6,3.7-19.8,3.7
			c-10.2,0-19.4-2.2-27.5-6.7c-8.1-4.5-14.4-10.8-18.9-18.9c-4.5-8.1-6.8-17.6-6.8-28.4s2.3-20.2,6.8-28.3s10.8-14.3,18.9-18.8
			c8.1-4.5,17.2-6.7,27.5-6.7c6.8,0,13.1,1.2,18.8,3.5c5.7,2.4,10.7,5.8,14.9,10.4v-12.8L539.1,779.6L539.1,779.6z M506,856
			c5.9-6,8.9-14,8.9-23.8s-3-17.8-8.9-23.8c-5.9-6-13.4-9.1-22.5-9.1s-16.5,3-22.4,9.1c-5.9,6-8.8,14-8.8,23.8s2.9,17.8,8.8,23.8
			c5.8,6,13.3,9.1,22.4,9.1S500.1,862.1,506,856z"/>
		<path class="st0" d="M574.9,882.8c-8.2-2.2-14.7-5.1-19.5-8.5l9.5-18.7c4.7,3.2,10.4,5.7,17,7.6c6.6,1.9,13.2,2.9,19.6,2.9
			c14.7,0,22.1-3.9,22.1-11.6c0-3.7-1.9-6.2-5.6-7.7c-3.7-1.4-9.8-2.8-18-4.1c-8.7-1.3-15.7-2.8-21.2-4.5s-10.2-4.7-14.2-9
			c-4-4.3-6-10.2-6-17.8c0-10,4.2-18,12.5-23.9s19.6-9,33.8-9c7.2,0,14.5,0.8,21.7,2.5s13.1,3.8,17.7,6.6l-9.5,18.7
			c-8.9-5.2-19-7.9-30.2-7.9c-7.2,0-12.7,1.1-16.5,3.2s-5.6,5-5.6,8.6c0,3.9,2,6.7,6,8.4s10.2,3.2,18.6,4.6
			c8.4,1.3,15.3,2.8,20.7,4.5c5.4,1.7,10,4.6,13.9,8.7s5.8,9.8,5.8,17.3c0,9.8-4.3,17.7-12.8,23.7c-8.5,5.9-20.2,8.9-34.9,8.9
			C591.4,886.2,583,885.1,574.9,882.8L574.9,882.8z"/>
		<path class="st0" d="M683.9,879.3c-8.7-4.6-15.4-11-20.3-19.2s-7.3-17.5-7.3-27.9s2.4-19.6,7.3-27.8s11.6-14.5,20.2-19.1
			c8.6-4.6,18.4-6.9,29.5-6.9c10.4,0,19.5,2.1,27.3,6.3c7.8,4.2,13.7,10.2,17.6,18.1l-18.9,11c-3-4.9-6.8-8.5-11.3-10.9
			c-4.5-2.4-9.5-3.7-14.9-3.7c-9.2,0-16.8,3-22.9,9s-9.1,14-9.1,23.9s3,18,9,23.9s13.6,9,23,9c5.4,0,10.3-1.2,14.9-3.7
			c4.5-2.4,8.3-6.1,11.3-10.9l18.9,11c-4.1,7.9-10,14-17.8,18.2c-7.8,4.3-16.8,6.4-27.1,6.4C702.4,886.2,692.6,883.9,683.9,879.3
			L683.9,879.3z"/>
		<path class="st0" d="M876.8,779.6v105.2h-23.5v-13.6c-4.1,5-9.1,8.7-15.1,11.2c-6,2.5-12.6,3.7-19.8,3.7
			c-10.2,0-19.4-2.2-27.5-6.7c-8.1-4.5-14.4-10.8-18.9-18.9c-4.5-8.1-6.8-17.6-6.8-28.4s2.3-20.2,6.8-28.3
			c4.5-8.1,10.8-14.3,18.9-18.8c8.1-4.5,17.2-6.7,27.5-6.7c6.8,0,13.1,1.2,18.8,3.5c5.7,2.4,10.7,5.8,14.9,10.4v-12.8L876.8,779.6
			L876.8,779.6z M843.7,856c5.9-6,8.9-14,8.9-23.8s-3-17.8-8.9-23.8c-5.9-6-13.4-9.1-22.5-9.1s-16.5,3-22.4,9.1
			c-5.8,6-8.8,14-8.8,23.8s2.9,17.8,8.8,23.8c5.8,6,13.3,9.1,22.4,9.1S837.8,862.1,843.7,856z"/>
		<path class="st0" d="M996.8,790c8,7.8,12,19.2,12,34.5v60.3h-24.6v-57.1c0-9.2-2.2-16.1-6.5-20.8c-4.3-4.7-10.5-7-18.5-7
			c-9.1,0-16.2,2.7-21.5,8.2c-5.3,5.5-7.9,13.3-7.9,23.5v53.2h-24.6V779.6h23.5v13.6c4.1-4.9,9.2-8.5,15.4-11
			c6.2-2.5,13.1-3.7,20.9-3.7C978.2,778.4,988.8,782.3,996.8,790L996.8,790z"/>
	</g>
	<g>
		<path class="st0" d="M981.8,745.7h-7v-3.3h17.8v3.3h-7v17.7h-3.9L981.8,745.7L981.8,745.7z"/>
		<path class="st0" d="M1014.9,763.4l0-13.9L1008,761h-1.7l-6.9-11.3v13.7h-3.7v-21h3.2l8.3,13.9l8.2-13.9h3.2l0,21H1014.9
			L1014.9,763.4z"/>
	</g>
	<g class="st1">
		<path class="st0" d="M671.5,962.8c0.1,1.7,0.2,3.9,0.2,6.5c0,4.9-0.3,8.6-1,11.1c-1,3.6-2.9,6.4-5.8,8.6
			c-2.8,2.1-6.3,3.2-10.3,3.2c-2.6,0-5-0.5-7.1-1.6c-2.1-1.1-3.8-2.6-5-4.5c-0.1-0.1-0.2-0.2-0.3-0.1c-0.1,0-0.1,0.1-0.1,0.3v4.3
			c0,0.6-0.3,0.9-0.9,0.9h-3c-0.6,0-0.9-0.3-0.9-0.9v-60c0-0.6,0.3-0.9,0.9-0.9h3c0.6,0,0.9,0.3,0.9,0.9v21.7c0,0.2,0.1,0.3,0.2,0.3
			c0.1,0,0.2,0,0.3-0.2c1.3-1.9,2.9-3.4,5-4.5c2.1-1.1,4.5-1.6,7.1-1.6c4.2,0,7.7,1.1,10.5,3.2c2.8,2.1,4.7,5,5.7,8.7
			C671.1,959.6,671.3,961.1,671.5,962.8z M666.6,975.9c0.2-1.4,0.3-3.6,0.3-6.7c0-3.1-0.1-5.4-0.3-6.8c-0.2-1.4-0.6-2.7-1.1-4
			c-0.7-2.4-2.1-4.3-4.1-5.8c-2-1.5-4.5-2.2-7.3-2.2c-2.8,0-5.1,0.7-7,2.2c-1.9,1.5-3.2,3.5-3.8,5.9c-0.4,1.2-0.7,2.5-0.9,3.9
			c-0.2,1.4-0.3,3.7-0.3,6.8c0,3,0.1,5.2,0.2,6.6c0.1,1.4,0.4,2.7,0.9,3.8c0.7,2.5,1.9,4.5,3.8,6c1.9,1.5,4.3,2.3,7.2,2.3
			s5.4-0.8,7.5-2.3c2.1-1.5,3.5-3.5,4.1-6C666.1,978.6,666.4,977.3,666.6,975.9z"/>
	</g>
	<g class="st1">
		<path class="st0" d="M679.9,1008.3v-2.3c0-0.6,0.3-0.9,0.9-0.9h0.4c2.3-0.1,4.1-0.4,5.4-1.1c1.3-0.7,2.4-1.9,3.3-3.7
			c0.9-1.8,2-4.6,3.3-8.5c0.1-0.2,0.1-0.4,0-0.5L677.8,948l-0.1-0.4c0-0.4,0.3-0.6,0.8-0.6h3.1c0.5,0,0.9,0.2,1.1,0.7l12.8,37.4
			c0.1,0.1,0.1,0.2,0.3,0.2c0.1,0,0.2-0.1,0.3-0.2l12.4-37.4c0.2-0.5,0.5-0.7,1.1-0.7h3.1c0.7,0,0.9,0.3,0.7,1l-17,48
			c-1.4,3.8-2.7,6.6-3.9,8.5c-1.2,1.8-2.6,3.1-4.3,3.7c-1.7,0.6-3.9,1-6.9,1h-0.6C680.1,1009.1,679.9,1008.9,679.9,1008.3z"/>
	</g>
	<g class="st1">
		<path class="st0" d="M758.8,954.4c-0.2,0.2-0.5,0.3-0.8,0.3h-9.2c-0.3,0-0.5,0.1-0.5,0.4v21.3c0,2.2,0.5,3.9,1.5,4.9
			c1,1,2.6,1.5,4.7,1.5h2.7c0.3,0,0.6,0.1,0.8,0.3c0.2,0.2,0.3,0.5,0.3,0.7v6.6c0,0.6-0.4,1-1.1,1.1l-4.7,0.1
			c-4.7,0-8.3-0.8-10.6-2.4s-3.5-4.6-3.6-9v-25.1c0-0.3-0.2-0.4-0.4-0.4h-5.1c-0.3,0-0.6-0.1-0.8-0.3c-0.2-0.2-0.3-0.5-0.3-0.8v-6.2
			c0-0.3,0.1-0.5,0.3-0.8c0.2-0.2,0.5-0.3,0.8-0.3h5.1c0.3,0,0.4-0.1,0.4-0.4v-10.3c0-0.3,0.1-0.5,0.3-0.7c0.2-0.2,0.5-0.3,0.8-0.3
			h7.8c0.3,0,0.6,0.1,0.8,0.3c0.2,0.2,0.3,0.5,0.3,0.7V946c0,0.3,0.1,0.4,0.5,0.4h9.2c0.3,0,0.6,0.1,0.8,0.3
			c0.2,0.2,0.3,0.5,0.3,0.8v6.2C759.1,954,759,954.2,758.8,954.4z"/>
	</g>
	<g class="st1">
		<path class="st0" d="M804.4,968.8l-0.1,2.7c0,0.7-0.4,1.1-1.1,1.1H775c-0.3,0-0.4,0.1-0.4,0.4c0.2,1.9,0.4,3.3,0.8,4
			c1.4,4.2,5,6.4,10.5,6.4c4.1,0,7.3-1.6,9.7-4.9c0.2-0.4,0.5-0.5,0.9-0.5c0.2,0,0.4,0.1,0.6,0.3l5.6,4.5c0.5,0.4,0.6,0.9,0.3,1.4
			c-1.9,2.6-4.3,4.6-7.4,6c-3.1,1.4-6.5,2.1-10.3,2.1c-4.7,0-8.7-1-11.9-3.1c-3.3-2.1-5.7-4.9-7.2-8.6c-1.4-3.2-2.1-7.6-2.1-13.2
			c0-3.4,0.4-6.2,1.1-8.3c1.2-4.1,3.5-7.4,6.8-9.7c3.3-2.4,7.3-3.6,12-3.6c11.8,0,18.5,6.1,20,18.2
			C804.3,965.4,804.4,967,804.4,968.8z M778.5,956.2c-1.5,1.1-2.5,2.6-3.1,4.5c-0.4,1-0.6,2.3-0.7,3.9c-0.1,0.3,0,0.4,0.4,0.4h18.3
			c0.3,0,0.5-0.1,0.5-0.4c-0.1-1.5-0.3-2.6-0.5-3.4c-0.5-2.1-1.6-3.8-3.2-4.9c-1.6-1.2-3.6-1.8-6-1.8
			C781.8,954.6,780,955.1,778.5,956.2z"/>
		<path class="st0" d="M844.9,950c2.9,2.8,4.4,6.7,4.4,11.6v28.9c0,0.3-0.1,0.5-0.3,0.8c-0.2,0.2-0.5,0.3-0.8,0.3h-8.3
			c-0.3,0-0.6-0.1-0.8-0.3c-0.2-0.2-0.3-0.5-0.3-0.8v-26.8c0-2.7-0.8-4.9-2.3-6.6c-1.6-1.7-3.6-2.5-6.2-2.5c-2.6,0-4.7,0.8-6.3,2.5
			c-1.6,1.6-2.4,3.8-2.4,6.5v26.9c0,0.3-0.1,0.5-0.3,0.8c-0.2,0.2-0.5,0.3-0.8,0.3h-8.3c-0.3,0-0.6-0.1-0.8-0.3
			c-0.2-0.2-0.3-0.5-0.3-0.8v-43c0-0.3,0.1-0.5,0.3-0.8c0.2-0.2,0.5-0.3,0.8-0.3h8.3c0.3,0,0.6,0.1,0.8,0.3c0.2,0.2,0.3,0.5,0.3,0.8
			v2.8c0,0.2,0.1,0.3,0.2,0.4c0.1,0.1,0.2,0,0.3-0.2c2.5-3.2,6.2-4.8,11.2-4.8C838.1,945.7,842,947.1,844.9,950z"/>
		<path class="st0" d="M885,947.7c2.9,1.3,5.1,3.1,6.7,5.3c1.6,2.3,2.3,4.8,2.3,7.7v29.7c0,0.3-0.1,0.5-0.3,0.8
			c-0.2,0.2-0.5,0.3-0.8,0.3h-8.3c-0.3,0-0.6-0.1-0.8-0.3c-0.2-0.2-0.3-0.5-0.3-0.8v-2.8c0-0.2-0.1-0.3-0.2-0.3
			c-0.1,0-0.2,0-0.4,0.1c-2.9,3.2-7.2,4.8-12.8,4.8c-4.5,0-8.2-1.1-11.1-3.4c-2.9-2.2-4.4-5.6-4.4-10c0-4.6,1.6-8.2,4.9-10.7
			c3.3-2.6,7.9-3.8,13.8-3.8h9.6c0.3,0,0.4-0.1,0.4-0.4v-2.1c0-2.3-0.7-4.1-2.1-5.3c-1.4-1.3-3.5-1.9-6.2-1.9
			c-2.3,0-4.1,0.4-5.5,1.2c-1.4,0.8-2.3,1.9-2.7,3.3c-0.2,0.7-0.6,1-1.3,0.9l-8.7-1.1c-0.3-0.1-0.6-0.2-0.8-0.3
			c-0.2-0.1-0.3-0.3-0.2-0.6c0.5-3.6,2.4-6.5,5.9-8.8c3.4-2.3,7.8-3.4,13-3.4C878.8,945.7,882.1,946.4,885,947.7z M880.4,981.8
			c2.1-1.5,3.1-3.5,3.1-5.8v-4.1c0-0.3-0.2-0.4-0.4-0.4h-7.6c-3.2,0-5.7,0.6-7.5,1.8c-1.8,1.2-2.7,2.9-2.7,5c0,1.9,0.7,3.3,2.1,4.4
			c1.4,1,3.2,1.5,5.4,1.5C875.8,984.1,878.3,983.3,880.4,981.8z"/>
		<path class="st0" d="M942.1,968.8c0,4.2-0.6,7.8-1.7,11c-1.3,3.9-3.5,6.9-6.4,9.1c-2.9,2.2-6.5,3.3-10.8,3.3
			c-4.2,0-7.7-1.6-10.3-4.7c-0.1-0.2-0.2-0.2-0.4-0.2c-0.1,0.1-0.2,0.2-0.2,0.4v2.7c0,0.3-0.1,0.5-0.3,0.8c-0.2,0.2-0.5,0.3-0.8,0.3
			h-8.3c-0.3,0-0.6-0.1-0.8-0.3c-0.2-0.2-0.3-0.5-0.3-0.8v-59.6c0-0.3,0.1-0.5,0.3-0.8c0.2-0.2,0.5-0.3,0.8-0.3h8.3
			c0.3,0,0.6,0.1,0.8,0.3c0.2,0.2,0.3,0.5,0.3,0.8V950c0,0.2,0.1,0.3,0.2,0.4c0.1,0.1,0.2,0,0.4-0.1c2.6-3,6-4.5,10.3-4.5
			c4.4,0,8.1,1.1,11,3.3c2.9,2.2,5.1,5.2,6.4,9.1C941.6,961.4,942.1,965,942.1,968.8z M931.4,969c0-4.6-0.9-8.2-2.7-10.8
			c-1.6-2.5-4-3.7-7.2-3.7c-2.9,0-5.2,1.3-6.8,3.9c-1.5,2.4-2.2,5.9-2.2,10.5c0,4.5,0.7,7.9,2.1,10.2c1.6,2.8,3.9,4.2,7,4.2
			c1.7,0,3.2-0.4,4.5-1.1c1.3-0.7,2.4-1.8,3.2-3.1C930.6,976.7,931.4,973.3,931.4,969z"/>
		<path class="st0" d="M949.7,991.2c-0.2-0.2-0.3-0.5-0.3-0.8v-59.6c0-0.3,0.1-0.5,0.3-0.8c0.2-0.2,0.5-0.3,0.8-0.3h8.3
			c0.3,0,0.6,0.1,0.8,0.3c0.2,0.2,0.3,0.5,0.3,0.8v59.6c0,0.3-0.1,0.5-0.3,0.8c-0.2,0.2-0.5,0.3-0.8,0.3h-8.3
			C950.1,991.5,949.9,991.4,949.7,991.2z"/>
		<path class="st0" d="M1007.3,968.8l-0.1,2.7c0,0.7-0.4,1.1-1.1,1.1H978c-0.3,0-0.4,0.1-0.4,0.4c0.2,1.9,0.4,3.3,0.8,4
			c1.4,4.2,5,6.4,10.5,6.4c4.1,0,7.3-1.6,9.7-4.9c0.2-0.4,0.5-0.5,0.9-0.5c0.2,0,0.4,0.1,0.6,0.3l5.6,4.5c0.5,0.4,0.6,0.9,0.3,1.4
			c-1.9,2.6-4.3,4.6-7.4,6c-3.1,1.4-6.5,2.1-10.3,2.1c-4.7,0-8.7-1-11.9-3.1c-3.3-2.1-5.7-4.9-7.2-8.6c-1.4-3.2-2.1-7.6-2.1-13.2
			c0-3.4,0.4-6.2,1.1-8.3c1.2-4.1,3.5-7.4,6.8-9.7c3.3-2.4,7.3-3.6,12-3.6c11.8,0,18.5,6.1,20,18.2
			C1007.2,965.4,1007.3,967,1007.3,968.8z M981.5,956.2c-1.5,1.1-2.5,2.6-3.1,4.5c-0.4,1-0.6,2.3-0.7,3.9c-0.1,0.3,0,0.4,0.4,0.4
			h18.3c0.3,0,0.5-0.1,0.5-0.4c-0.1-1.5-0.3-2.6-0.5-3.4c-0.5-2.1-1.6-3.8-3.2-4.9c-1.6-1.2-3.6-1.8-6-1.8
			C984.8,954.6,982.9,955.1,981.5,956.2z"/>
	</g>
</g>
<g id="e">
</g>
</svg>
