<?xml version="1.0" encoding="utf-8"?>
<!-- Generator: Adobe Illustrator 26.2.1, SVG Export Plug-In . SVG Version: 6.00 Build 0)  -->
<svg version="1.1" id="Layer_1" xmlns="http://www.w3.org/2000/svg" xmlns:xlink="http://www.w3.org/1999/xlink" x="0px" y="0px"
	 viewBox="0 0 1394.6 479" style="enable-background:new 0 0 1394.6 479;" xml:space="preserve">
<style type="text/css">
	.st0{fill:#FFFFFF;}
	.st1{enable-background:new    ;}
</style>
<g id="a">
</g>
<g id="b">
</g>
<g id="c">
</g>
<g id="d">
	<g>
		<path class="st0" d="M432.3,244.6c-2.9,2.4-6.4,4.1-10.5,5.3c-4.1,1.2-8.5,1.8-13.1,1.8c-11.6,0-20.5-3-26.8-9.1
			s-9.5-14.8-9.5-26.4v-94.4H397v24h28.2v19.7H397v50.1c0,5.1,1.3,9,3.8,11.7s6.1,4,10.7,4c5.5,0,10.1-1.4,13.8-4.3L432.3,244.6
			L432.3,244.6z"/>
		<path class="st0" d="M523.7,219.3l13,15.2c-4.6,5.6-10.5,9.9-17.7,12.8c-7.2,2.9-15.4,4.3-24.4,4.3c-11.6,0-21.7-2.3-30.5-6.9
			c-8.8-4.6-15.6-11-20.4-19.2c-4.8-8.2-7.2-17.5-7.2-27.9s2.3-19.5,7-27.7c4.7-8.2,11.1-14.6,19.3-19.2c8.2-4.6,17.5-6.9,27.9-6.9
			s18.8,2.1,26.9,6.4c8.1,4.3,14.5,10.4,19.2,18.3c4.7,7.9,7.1,17.2,7.1,27.9l-80.6,15.8c2.5,6,6.5,10.6,12,13.8s12.1,4.7,19.9,4.7
			C506.6,230.8,516.1,226.9,523.7,219.3L523.7,219.3z M468.7,172.4c-5.6,5.9-8.4,13.9-8.4,23.8v0.2l59.5-11.4
			c-1.7-6.4-5.2-11.6-10.3-15.6c-5.2-3.9-11.5-5.9-18.8-5.9C481.6,163.6,474.3,166.5,468.7,172.4L468.7,172.4z"/>
		<path class="st0" d="M624.4,143.9v23.4c-2.1-0.4-4-0.6-5.7-0.6c-9.6,0-17.1,2.8-22.5,8.4c-5.4,5.6-8.1,13.6-8.1,24.1v51h-24.6V145
			H587v15.4C594.1,149.4,606.6,143.9,624.4,143.9L624.4,143.9z"/>
		<path class="st0" d="M702.3,143.9v23.4c-2.1-0.4-4-0.6-5.7-0.6c-9.6,0-17.1,2.8-22.5,8.4c-5.4,5.6-8.1,13.6-8.1,24.1v51h-24.6V145
			h23.5v15.4C671.9,149.4,684.4,143.9,702.3,143.9L702.3,143.9z"/>
		<path class="st0" d="M821.1,145.1v105.2h-23.5v-13.6c-4.1,5-9.1,8.7-15.1,11.2c-6,2.5-12.6,3.7-19.8,3.7
			c-10.2,0-19.4-2.2-27.5-6.7c-8.1-4.5-14.4-10.8-18.9-18.9c-4.5-8.1-6.8-17.6-6.8-28.4s2.3-20.2,6.8-28.3
			c4.5-8.1,10.8-14.4,18.9-18.8c8.1-4.5,17.2-6.7,27.5-6.7c6.8,0,13.1,1.2,18.8,3.6c5.7,2.4,10.7,5.9,14.9,10.4V145L821.1,145.1
			L821.1,145.1z M788,221.5c5.9-6,8.9-14,8.9-23.8s-3-17.8-8.9-23.8s-13.4-9.1-22.5-9.1s-16.5,3-22.4,9.1c-5.8,6-8.8,14-8.8,23.8
			s2.9,17.8,8.8,23.8c5.8,6,13.3,9.1,22.4,9.1S782.1,227.5,788,221.5z"/>
		<path class="st0" d="M856.9,248.3c-8.2-2.2-14.7-5.1-19.5-8.5l9.5-18.7c4.7,3.1,10.4,5.7,17,7.6s13.2,2.9,19.6,2.9
			c14.7,0,22.1-3.9,22.1-11.6c0-3.7-1.9-6.2-5.6-7.7c-3.7-1.4-9.8-2.8-18-4.1c-8.7-1.3-15.7-2.8-21.2-4.5c-5.5-1.7-10.2-4.7-14.2-9
			s-6-10.2-6-17.8c0-10,4.2-18,12.5-23.9c8.3-6,19.6-9,33.8-9c7.2,0,14.5,0.8,21.7,2.5s13.1,3.8,17.7,6.6l-9.5,18.7
			c-8.9-5.2-19-7.9-30.2-7.9c-7.2,0-12.7,1.1-16.5,3.2s-5.6,5-5.6,8.6c0,3.9,2,6.7,6,8.4s10.2,3.2,18.6,4.6
			c8.4,1.3,15.3,2.8,20.7,4.5c5.4,1.7,10,4.6,13.9,8.7c3.9,4.1,5.8,9.9,5.8,17.3c0,9.9-4.3,17.7-12.8,23.6
			c-8.5,5.9-20.2,8.9-34.9,8.9C873.4,251.6,865,250.5,856.9,248.3L856.9,248.3z"/>
		<path class="st0" d="M965.9,244.8c-8.7-4.6-15.4-11-20.3-19.2c-4.9-8.2-7.3-17.5-7.3-27.9s2.4-19.6,7.3-27.8s11.6-14.5,20.2-19.1
			c8.6-4.6,18.4-6.9,29.5-6.9c10.4,0,19.5,2.1,27.3,6.3c7.8,4.2,13.7,10.2,17.6,18.1l-18.9,11c-3-4.9-6.8-8.5-11.3-10.9
			c-4.5-2.4-9.5-3.6-14.9-3.6c-9.2,0-16.8,3-22.9,9s-9.1,14-9.1,23.9s3,18,9,23.9s13.6,9,23,9c5.4,0,10.3-1.2,14.9-3.6
			c4.5-2.4,8.3-6.1,11.3-10.9l18.9,11c-4.1,7.9-10,14-17.8,18.2c-7.8,4.3-16.8,6.4-27.1,6.4C984.4,251.6,974.6,249.3,965.9,244.8
			L965.9,244.8z"/>
		<path class="st0" d="M1158.8,145.1v105.2h-23.4v-13.6c-4.1,5-9.1,8.7-15.1,11.2c-6,2.5-12.6,3.7-19.8,3.7
			c-10.2,0-19.4-2.2-27.5-6.7c-8.1-4.5-14.4-10.8-18.9-18.9c-4.5-8.1-6.8-17.6-6.8-28.4s2.3-20.2,6.8-28.3s10.8-14.4,18.9-18.8
			c8.1-4.5,17.2-6.7,27.5-6.7c6.8,0,13.1,1.2,18.8,3.6c5.7,2.4,10.7,5.9,14.9,10.4V145L1158.8,145.1L1158.8,145.1z M1125.7,221.5
			c5.9-6,8.9-14,8.9-23.8s-3-17.8-8.9-23.8s-13.4-9.1-22.5-9.1s-16.5,3-22.4,9.1c-5.8,6-8.8,14-8.8,23.8s2.9,17.8,8.8,23.8
			c5.8,6,13.3,9.1,22.4,9.1S1119.8,227.5,1125.7,221.5z"/>
		<path class="st0" d="M1278.8,155.5c8,7.8,12,19.2,12,34.5v60.3h-24.6v-57.1c0-9.2-2.2-16.1-6.5-20.8c-4.3-4.7-10.5-7-18.5-7
			c-9.1,0-16.2,2.7-21.5,8.2c-5.3,5.4-7.9,13.3-7.9,23.6v53.2h-24.6V145.1h23.4v13.6c4.1-4.9,9.2-8.5,15.4-11
			c6.2-2.5,13.1-3.7,20.9-3.7C1260.2,143.9,1270.8,147.8,1278.8,155.5L1278.8,155.5z"/>
	</g>
	<g>
		<path class="st0" d="M262.8,276.7c-1.9,0-3.7-0.6-5.2-1.9c-3.4-2.9-3.9-8-1-11.5c13.8-16.5,21.4-37.4,21.4-58.9
			c0-50.5-41.1-91.5-91.5-91.5c-26.5,0-51.7,11.5-69.1,31.6c-2.9,3.4-8.1,3.8-11.5,0.8c-3.4-2.9-3.8-8.1-0.8-11.5
			c20.5-23.6,50.2-37.2,81.4-37.2c59.4,0,107.8,48.4,107.8,107.8c0,25.3-9,49.9-25.2,69.3C267.4,275.7,265.1,276.7,262.8,276.7
			L262.8,276.7z"/>
		<path class="st0" d="M164.6,254.5c-1.3,0-2.6-0.3-3.8-0.9c-18.3-9.6-29.7-28.4-29.7-49c0-30.5,24.8-55.3,55.3-55.3
			c9.3,0,18.6,2.4,26.7,6.9c3.9,2.2,5.4,7.1,3.2,11.1c-2.2,3.9-7.1,5.4-11.1,3.2c-5.8-3.2-12.3-4.9-18.9-4.9
			c-21.5,0-39.1,17.5-39.1,39.1c0,14.6,8,27.9,21,34.6c4,2.1,5.5,7,3.4,11C170.3,252.9,167.5,254.5,164.6,254.5L164.6,254.5z"/>
		<path class="st0" d="M113.6,225.9c-3.8,0-7.3-2.8-8-6.7c-0.9-4.9-1.3-9.8-1.3-14.8c0-45.3,36.9-82.2,82.2-82.2
			c39.7,0,73.7,28.4,80.9,67.4c0.8,4.4-2.1,8.6-6.5,9.5c-4.4,0.8-8.6-2.1-9.5-6.5c-5.7-31.4-33-54.1-64.9-54.1
			c-36.4,0-65.9,29.6-65.9,65.9c0,4,0.4,7.9,1.1,11.9c0.8,4.4-2.1,8.6-6.5,9.5C114.6,225.9,114.1,225.9,113.6,225.9L113.6,225.9z"/>
		<circle class="st0" cx="185.9" cy="201.8" r="19.3"/>
	</g>
	<g class="st1">
		<path class="st0" d="M950.5,326.6c0.1,1.7,0.2,3.9,0.2,6.5c0,4.9-0.3,8.6-1,11.1c-1,3.6-2.9,6.4-5.8,8.6
			c-2.8,2.1-6.3,3.2-10.3,3.2c-2.6,0-5-0.5-7.1-1.6c-2.1-1.1-3.8-2.6-5-4.5c-0.1-0.1-0.2-0.2-0.3-0.1c-0.1,0-0.1,0.1-0.1,0.3v4.3
			c0,0.6-0.3,0.9-0.9,0.9h-3c-0.6,0-0.9-0.3-0.9-0.9v-60c0-0.6,0.3-0.9,0.9-0.9h3c0.6,0,0.9,0.3,0.9,0.9v21.7c0,0.2,0.1,0.3,0.2,0.3
			c0.1,0,0.2,0,0.3-0.2c1.3-1.9,2.9-3.4,5-4.5c2.1-1.1,4.5-1.6,7.1-1.6c4.2,0,7.7,1.1,10.5,3.2c2.8,2.1,4.7,5,5.7,8.7
			C950.2,323.3,950.4,324.9,950.5,326.6z M945.7,339.7c0.2-1.4,0.3-3.6,0.3-6.7c0-3.1-0.1-5.4-0.3-6.8c-0.2-1.4-0.6-2.7-1.1-4
			c-0.7-2.4-2.1-4.3-4.1-5.8c-2-1.5-4.5-2.2-7.3-2.2c-2.8,0-5.1,0.8-7,2.2c-1.9,1.5-3.2,3.5-3.8,5.9c-0.4,1.2-0.7,2.5-0.9,3.9
			c-0.2,1.4-0.3,3.7-0.3,6.8c0,3,0.1,5.2,0.2,6.6c0.1,1.4,0.4,2.7,0.9,3.8c0.7,2.5,1.9,4.5,3.8,6c1.9,1.5,4.3,2.3,7.2,2.3
			s5.4-0.8,7.5-2.3c2.1-1.5,3.5-3.5,4.1-6C945.2,342.3,945.5,341,945.7,339.7z"/>
	</g>
	<g class="st1">
		<path class="st0" d="M959,372v-2.3c0-0.6,0.3-0.9,0.9-0.9h0.4c2.3-0.1,4.1-0.4,5.4-1.1c1.3-0.7,2.4-1.9,3.3-3.7
			c0.9-1.8,2-4.6,3.3-8.5c0.1-0.2,0.1-0.4,0-0.5l-15.4-43.2l-0.1-0.4c0-0.4,0.3-0.6,0.8-0.6h3.1c0.5,0,0.9,0.2,1.1,0.7l12.8,37.4
			c0.1,0.1,0.1,0.2,0.3,0.2c0.1,0,0.2-0.1,0.3-0.2l12.4-37.4c0.2-0.5,0.5-0.7,1.1-0.7h3.1c0.7,0,0.9,0.3,0.7,1l-17,48
			c-1.4,3.8-2.7,6.6-3.9,8.5c-1.2,1.8-2.6,3.1-4.3,3.7c-1.7,0.6-3.9,1-6.9,1h-0.6C959.2,372.9,959,372.6,959,372z"/>
	</g>
	<g class="st1">
		<path class="st0" d="M1037.9,318.1c-0.2,0.2-0.5,0.3-0.8,0.3h-9.2c-0.3,0-0.5,0.1-0.5,0.4v21.3c0,2.2,0.5,3.9,1.5,4.9
			c1,1,2.6,1.5,4.7,1.5h2.7c0.3,0,0.6,0.1,0.8,0.3c0.2,0.2,0.3,0.5,0.3,0.8v6.6c0,0.6-0.4,1-1.1,1.1l-4.7,0.1
			c-4.7,0-8.3-0.8-10.6-2.4c-2.3-1.6-3.5-4.6-3.6-9v-25.1c0-0.3-0.2-0.4-0.4-0.4h-5.1c-0.3,0-0.6-0.1-0.8-0.3
			c-0.2-0.2-0.3-0.5-0.3-0.8v-6.2c0-0.3,0.1-0.5,0.3-0.8c0.2-0.2,0.5-0.3,0.8-0.3h5.1c0.3,0,0.4-0.1,0.4-0.4v-10.3
			c0-0.3,0.1-0.5,0.3-0.7c0.2-0.2,0.5-0.3,0.8-0.3h7.8c0.3,0,0.6,0.1,0.8,0.3c0.2,0.2,0.3,0.5,0.3,0.7v10.3c0,0.3,0.1,0.4,0.5,0.4
			h9.2c0.3,0,0.6,0.1,0.8,0.3c0.2,0.2,0.3,0.5,0.3,0.8v6.2C1038.2,317.7,1038.1,317.9,1037.9,318.1z"/>
	</g>
	<g class="st1">
		<path class="st0" d="M1083.5,332.6l-0.1,2.7c0,0.7-0.4,1.1-1.1,1.1h-28.2c-0.3,0-0.4,0.1-0.4,0.4c0.2,1.9,0.4,3.3,0.8,4
			c1.4,4.2,5,6.4,10.5,6.4c4.1,0,7.3-1.6,9.7-4.9c0.2-0.4,0.5-0.5,0.9-0.5c0.2,0,0.4,0.1,0.6,0.3l5.6,4.5c0.5,0.4,0.6,0.9,0.3,1.4
			c-1.9,2.6-4.3,4.6-7.4,6c-3.1,1.4-6.5,2.1-10.3,2.1c-4.7,0-8.7-1-11.9-3.1c-3.3-2.1-5.7-4.9-7.2-8.6c-1.4-3.2-2.1-7.6-2.1-13.2
			c0-3.4,0.4-6.2,1.1-8.3c1.2-4.1,3.5-7.4,6.8-9.7c3.3-2.4,7.3-3.6,12-3.6c11.8,0,18.5,6.1,20,18.2
			C1083.3,329.1,1083.5,330.7,1083.5,332.6z M1057.6,319.9c-1.5,1.1-2.5,2.6-3.1,4.5c-0.4,1-0.6,2.3-0.7,3.9c-0.1,0.3,0,0.4,0.4,0.4
			h18.3c0.3,0,0.5-0.1,0.5-0.4c-0.1-1.5-0.3-2.6-0.5-3.4c-0.5-2.1-1.6-3.8-3.2-4.9c-1.6-1.2-3.6-1.8-6-1.8
			C1060.9,318.3,1059,318.8,1057.6,319.9z"/>
		<path class="st0" d="M1124,313.7c2.9,2.8,4.4,6.7,4.4,11.6v28.9c0,0.3-0.1,0.5-0.3,0.8c-0.2,0.2-0.5,0.3-0.8,0.3h-8.3
			c-0.3,0-0.6-0.1-0.8-0.3c-0.2-0.2-0.3-0.5-0.3-0.8v-26.8c0-2.7-0.8-4.9-2.3-6.6c-1.6-1.7-3.6-2.5-6.2-2.5c-2.6,0-4.7,0.8-6.3,2.5
			c-1.6,1.6-2.4,3.8-2.4,6.5v26.9c0,0.3-0.1,0.5-0.3,0.8c-0.2,0.2-0.5,0.3-0.8,0.3h-8.3c-0.3,0-0.6-0.1-0.8-0.3
			c-0.2-0.2-0.3-0.5-0.3-0.8v-43c0-0.3,0.1-0.5,0.3-0.8c0.2-0.2,0.5-0.3,0.8-0.3h8.3c0.3,0,0.6,0.1,0.8,0.3c0.2,0.2,0.3,0.5,0.3,0.8
			v2.8c0,0.2,0.1,0.3,0.2,0.4c0.1,0.1,0.2,0,0.3-0.2c2.5-3.2,6.2-4.8,11.2-4.8C1117.2,309.5,1121.1,310.9,1124,313.7z"/>
		<path class="st0" d="M1164.1,311.4c2.9,1.3,5.1,3.1,6.7,5.3c1.6,2.3,2.3,4.8,2.3,7.7v29.7c0,0.3-0.1,0.5-0.3,0.8
			c-0.2,0.2-0.5,0.3-0.8,0.3h-8.3c-0.3,0-0.6-0.1-0.8-0.3c-0.2-0.2-0.3-0.5-0.3-0.8v-2.8c0-0.2-0.1-0.3-0.2-0.3
			c-0.1,0-0.2,0-0.4,0.1c-2.9,3.2-7.2,4.8-12.8,4.8c-4.5,0-8.2-1.1-11.1-3.4c-2.9-2.2-4.4-5.6-4.4-10c0-4.6,1.6-8.2,4.9-10.7
			c3.3-2.6,7.9-3.8,13.8-3.8h9.6c0.3,0,0.4-0.1,0.4-0.4v-2.1c0-2.3-0.7-4.1-2.1-5.3c-1.4-1.3-3.5-1.9-6.2-1.9
			c-2.3,0-4.1,0.4-5.5,1.2c-1.4,0.8-2.3,1.9-2.7,3.3c-0.2,0.7-0.6,1-1.3,0.9l-8.7-1.1c-0.3-0.1-0.6-0.2-0.8-0.3
			c-0.2-0.1-0.3-0.3-0.2-0.6c0.5-3.6,2.4-6.5,5.9-8.8c3.4-2.3,7.8-3.4,13-3.4C1157.9,309.5,1161.2,310.1,1164.1,311.4z
			 M1159.5,345.5c2.1-1.5,3.1-3.5,3.1-5.8v-4.1c0-0.3-0.2-0.4-0.4-0.4h-7.6c-3.2,0-5.7,0.6-7.5,1.8c-1.8,1.2-2.7,2.9-2.7,5
			c0,1.9,0.7,3.3,2.1,4.4c1.4,1,3.2,1.5,5.4,1.5C1154.9,347.8,1157.4,347.1,1159.5,345.5z"/>
		<path class="st0" d="M1221.1,332.6c0,4.2-0.6,7.8-1.7,11c-1.3,3.9-3.5,6.9-6.4,9.1c-2.9,2.2-6.5,3.3-10.8,3.3
			c-4.2,0-7.7-1.6-10.3-4.7c-0.1-0.2-0.2-0.2-0.4-0.2c-0.1,0.1-0.2,0.2-0.2,0.4v2.7c0,0.3-0.1,0.5-0.3,0.8c-0.2,0.2-0.5,0.3-0.8,0.3
			h-8.3c-0.3,0-0.6-0.1-0.8-0.3c-0.2-0.2-0.3-0.5-0.3-0.8v-59.6c0-0.3,0.1-0.5,0.3-0.7c0.2-0.2,0.5-0.3,0.8-0.3h8.3
			c0.3,0,0.6,0.1,0.8,0.3c0.2,0.2,0.3,0.5,0.3,0.7v19.1c0,0.2,0.1,0.3,0.2,0.4c0.1,0.1,0.2,0,0.4-0.1c2.6-3,6-4.5,10.3-4.5
			c4.4,0,8.1,1.1,11,3.3c2.9,2.2,5.1,5.2,6.4,9.1C1220.6,325.1,1221.1,328.7,1221.1,332.6z M1210.4,332.7c0-4.6-0.9-8.2-2.7-10.8
			c-1.6-2.5-4-3.7-7.2-3.7c-2.9,0-5.2,1.3-6.8,3.9c-1.5,2.4-2.2,5.9-2.2,10.5c0,4.5,0.7,7.9,2.1,10.2c1.6,2.8,3.9,4.2,7,4.2
			c1.7,0,3.2-0.4,4.5-1.1c1.3-0.7,2.4-1.8,3.2-3.1C1209.7,340.4,1210.4,337,1210.4,332.7z"/>
		<path class="st0" d="M1228.8,354.9c-0.2-0.2-0.3-0.5-0.3-0.8v-59.6c0-0.3,0.1-0.5,0.3-0.7c0.2-0.2,0.5-0.3,0.8-0.3h8.3
			c0.3,0,0.6,0.1,0.8,0.3c0.2,0.2,0.3,0.5,0.3,0.7v59.6c0,0.3-0.1,0.5-0.3,0.8c-0.2,0.2-0.5,0.3-0.8,0.3h-8.3
			C1229.2,355.2,1229,355.1,1228.8,354.9z"/>
		<path class="st0" d="M1286.4,332.6l-0.1,2.7c0,0.7-0.4,1.1-1.1,1.1h-28.2c-0.3,0-0.4,0.1-0.4,0.4c0.2,1.9,0.4,3.3,0.8,4
			c1.4,4.2,5,6.4,10.5,6.4c4.1,0,7.3-1.6,9.7-4.9c0.2-0.4,0.5-0.5,0.9-0.5c0.2,0,0.4,0.1,0.6,0.3l5.6,4.5c0.5,0.4,0.6,0.9,0.3,1.4
			c-1.9,2.6-4.3,4.6-7.4,6c-3.1,1.4-6.5,2.1-10.3,2.1c-4.7,0-8.7-1-11.9-3.1c-3.3-2.1-5.7-4.9-7.2-8.6c-1.4-3.2-2.1-7.6-2.1-13.2
			c0-3.4,0.4-6.2,1.1-8.3c1.2-4.1,3.5-7.4,6.8-9.7c3.3-2.4,7.3-3.6,12-3.6c11.8,0,18.5,6.1,20,18.2
			C1286.3,329.1,1286.4,330.7,1286.4,332.6z M1260.5,319.9c-1.5,1.1-2.5,2.6-3.1,4.5c-0.4,1-0.6,2.3-0.7,3.9c-0.1,0.3,0,0.4,0.4,0.4
			h18.3c0.3,0,0.5-0.1,0.5-0.4c-0.1-1.5-0.3-2.6-0.5-3.4c-0.5-2.1-1.6-3.8-3.2-4.9c-1.6-1.2-3.6-1.8-6-1.8
			C1263.8,318.3,1262,318.8,1260.5,319.9z"/>
	</g>
	<g>
		<path class="st0" d="M1268.8,114.6h-7v-3.3h17.8v3.3h-7v17.7h-3.9V114.6z"/>
		<path class="st0" d="M1301.9,132.3l0-13.9l-6.9,11.5h-1.7l-6.9-11.3v13.7h-3.7v-21h3.2l8.3,13.9l8.2-13.9h3.2l0,21L1301.9,132.3
			L1301.9,132.3z"/>
	</g>
</g>
<g id="e">
</g>
</svg>
