<svg xmlns="http://www.w3.org/2000/svg" ><defs><style>.cls-1{fill:#fff;}</style></defs><g id="Layer_6" data-name="Layer 6"><path class="cls-1" d="M432.69,297.32a29.09,29.09,0,0,1-10.54,5.32A47.61,47.61,0,0,1,409,304.41q-17.34,0-26.8-9.06T372.79,269V174.56h24.63v24h28.17v19.7H397.42v50.05q0,7.69,3.84,11.73t10.74,4q8.28,0,13.79-4.34Z"/><path class="cls-1" d="M524.12,272.1l13,15.17a43,43,0,0,1-17.73,12.81A65.33,65.33,0,0,1,495,304.41q-17.35,0-30.55-6.89A49.61,49.61,0,0,1,444,278.3a54.16,54.16,0,0,1-7.19-27.88,55.09,55.09,0,0,1,7-27.68,49.79,49.79,0,0,1,19.31-19.21,56.07,56.07,0,0,1,27.88-6.9,56.77,56.77,0,0,1,26.9,6.4,48.17,48.17,0,0,1,19.21,18.33q7.1,11.92,7.1,27.88L463.63,265a27.5,27.5,0,0,0,12,13.8q8.28,4.72,19.91,4.73Q512.68,283.53,524.12,272.1ZM469,225.2q-8.37,8.87-8.37,23.84v.2l59.51-11.43a28,28,0,0,0-10.35-15.56Q502,216.33,491,216.33,477.42,216.33,469,225.2Z"/><path class="cls-1" d="M624.8,196.63v23.45a30.67,30.67,0,0,0-5.71-.59q-14.39,0-22.46,8.37T588.55,252v51H563.92V197.81h23.45v15.37Q598,196.64,624.8,196.63Z"/><path class="cls-1" d="M702.64,196.63v23.45a30.77,30.77,0,0,0-5.72-.59q-14.38,0-22.46,8.37T666.38,252v51H641.75V197.81H665.2v15.37Q675.83,196.64,702.64,196.63Z"/><path class="cls-1" d="M821.46,197.81V303H798V289.44a38.09,38.09,0,0,1-15.07,11.23,51,51,0,0,1-19.81,3.74,55.84,55.84,0,0,1-27.49-6.7,47.65,47.65,0,0,1-18.91-18.91q-6.79-12.23-6.8-28.38t6.8-28.27a47.88,47.88,0,0,1,18.91-18.82,56,56,0,0,1,27.49-6.7A48.65,48.65,0,0,1,782,200.18a41.37,41.37,0,0,1,14.88,10.44V197.81Zm-33.11,76.46q8.88-9.07,8.87-23.85t-8.87-23.84q-8.86-9.06-22.46-9.06t-22.36,9.06q-8.78,9.06-8.77,23.84t8.77,23.85q8.76,9.06,22.36,9.06T788.35,274.27Z"/><path class="cls-1" d="M857.32,301.06q-12.23-3.35-19.51-8.47l9.46-18.72a61.07,61.07,0,0,0,17,7.59,71,71,0,0,0,19.61,2.85q22.07,0,22.07-11.62,0-5.52-5.62-7.69t-18-4.13a146.61,146.61,0,0,1-21.18-4.54,32.46,32.46,0,0,1-14.19-9q-6-6.41-6-17.83,0-15,12.51-23.94t33.8-9a97.6,97.6,0,0,1,21.67,2.46,61.26,61.26,0,0,1,17.74,6.6l-9.46,18.72a58.42,58.42,0,0,0-30.15-7.88q-10.85,0-16.45,3.25T865,228.35q0,5.93,6,8.38t18.62,4.63a144.31,144.31,0,0,1,20.69,4.53,32.37,32.37,0,0,1,13.89,8.67q5.82,6.1,5.82,17.34,0,14.78-12.81,23.65t-34.88,8.86A93.86,93.86,0,0,1,857.32,301.06Z"/><path class="cls-1" d="M966.28,297.52A50.59,50.59,0,0,1,946,278.3a56.77,56.77,0,0,1,0-55.66,51.06,51.06,0,0,1,20.19-19.11q12.92-6.9,29.46-6.9,15.57,0,27.29,6.31a40.87,40.87,0,0,1,17.64,18.12l-18.92,11a30.06,30.06,0,0,0-11.33-10.94,31,31,0,0,0-14.88-3.64q-13.79,0-22.85,9t-9.07,23.94q0,15,9,23.94t23,9a30.87,30.87,0,0,0,14.88-3.65,30,30,0,0,0,11.33-10.93l18.92,11A42.73,42.73,0,0,1,1022.74,298q-11.73,6.4-27.1,6.4A61.67,61.67,0,0,1,966.28,297.52Z"/><path class="cls-1" d="M1159.19,197.81V303h-23.45V289.44a38.09,38.09,0,0,1-15.07,11.23,51,51,0,0,1-19.81,3.74,55.78,55.78,0,0,1-27.48-6.7,47.61,47.61,0,0,1-18.92-18.91q-6.8-12.23-6.8-28.38t6.8-28.27a47.84,47.84,0,0,1,18.92-18.82,55.89,55.89,0,0,1,27.48-6.7,48.65,48.65,0,0,1,18.82,3.55,41.28,41.28,0,0,1,14.88,10.44V197.81Zm-33.1,76.46q8.87-9.07,8.86-23.85t-8.86-23.84q-8.88-9.06-22.47-9.06t-22.36,9.06q-8.77,9.06-8.77,23.84t8.77,23.85q8.76,9.06,22.36,9.06T1126.09,274.27Z"/><path class="cls-1" d="M1279.19,208.26q12,11.63,12,34.48V303h-24.64V245.89q0-13.78-6.5-20.79t-18.52-7q-13.59,0-21.48,8.18t-7.88,23.54V303h-24.63V197.81H1211v13.6a38.51,38.51,0,0,1,15.37-11,55.38,55.38,0,0,1,20.88-3.74Q1267.17,196.63,1279.19,208.26Z"/><path class="cls-1" d="M263.14,329.49a8.13,8.13,0,0,1-6.22-13.36A91.53,91.53,0,0,0,117.69,197.29a8.13,8.13,0,1,1-12.28-10.65,107.79,107.79,0,0,1,164,140A8.15,8.15,0,0,1,263.14,329.49Z"/><path class="cls-1" d="M164.94,307.23a8.07,8.07,0,0,1-3.76-.93,55.33,55.33,0,1,1,52.38-97.47,8.13,8.13,0,1,1-7.86,14.24,39.07,39.07,0,1,0-37,68.82,8.14,8.14,0,0,1-3.78,15.34Z"/><path class="cls-1" d="M114,278.72a8.13,8.13,0,0,1-8-6.67,82.2,82.2,0,1,1,161.72-29.53,8.13,8.13,0,1,1-16,2.92A65.93,65.93,0,1,0,122,269.12a8.12,8.12,0,0,1-8,9.6Z"/><circle class="cls-1" cx="186.23" cy="254.59" r="19.31"/></g></svg>